<svg fill='#ffcd11' shape-rendering="geometricPrecision" text-rendering="geometricPrecision" version="1.1" viewBox="0 0 478.02 512" xmlns="http://www.w3.org/2000/svg"><path d="m222.53 431.25c1.562 1.572 3.4191 2.8191 5.4622 3.6708s4.2336 1.2893 6.4452 1.2893 4.4034-0.43886 6.4465-1.2893 3.8989-2.0988 5.4622-3.6708l79.133-79.506c12.2-12.267 19.163-28.823 19.414-46.158 0.25042-17.335-6.2295-34.087-18.07-46.705s-28.107-20.108-45.352-20.885c-17.246-0.7773-34.116 5.2216-47.033 16.724-12.917-11.502-29.786-17.501-47.032-16.724-17.246 0.77729-33.513 8.2676-45.352 20.885s-18.321 29.37-18.07 46.705c0.25141 17.335 7.2139 33.891 19.414 46.158zm-55.353-149.94c6.144-6.1589 14.471-9.6177 23.152-9.6177 8.6804 0 17.008 3.4588 23.152 9.6177l8.8317 8.8676c1.5695 1.6314 3.4514 2.9294 5.5316 3.8146 2.0802 0.88516 4.3167 1.3426 6.5766 1.3426s4.4952-0.45622 6.5754-1.3426 3.9621-2.1831 5.5328-3.8146l8.8304-8.8676c2.9877-3.284 6.6064-5.9246 10.638-7.7643 4.0315-1.8397 8.3928-2.8402 12.82-2.9406 4.427-0.10042 8.8292 0.70167 12.939 2.3579 4.1096 1.6562 7.8436 4.1295 10.975 7.2746 3.1315 3.1439 5.5948 6.894 7.2436 11.021 1.6488 4.1282 2.4472 8.5478 2.3468 12.995-0.0992 4.4456-1.0947 8.8255-2.927 12.874s-4.4617 7.6825-7.7308 10.683l-67.226 67.565-67.26-67.547c-6.1328-6.1713-9.5768-14.533-9.5768-23.251 0-8.7176 3.4439-17.098 9.5768-23.268z" clip-rule="evenodd" fill-rule="evenodd" stroke-width="12.397"></path><path d="m445.83 12.8c-0.91243-3.6668-3.0224-6.9206-5.9928-9.241-2.9703-2.3204-6.6312-3.5735-10.394-3.559h-380.86c-3.7636-0.0146-7.4233 1.2385-10.394 3.559s-5.0811 5.5742-5.9934 9.241l-31.682 127.53c-0.34595 1.3525-0.50983 354.74-0.50983 354.74-2e-3 2.2265 0.43327 4.4332 1.282 6.4911 0.84876 2.0579 2.0939 3.9262 3.6639 5.4994 1.57 1.5732 3.434 2.8203 5.4849 3.6683 2.051 0.84796 4.2484 1.2806 6.4664 1.2732h444.28c4.4667 0 8.7511-1.7815 11.91-4.9539 3.1588-3.1724 4.9328-7.4742 4.9328-11.961 0 0-0.16365-353.43-0.50953-354.74zm-189.95 21.01h160.49l23.325 93.715h-183.9zm-194.15 0h160.49v93.715h-183.83zm382.7 444.34h-410.76v-316.82h410.74z" clip-rule="evenodd" fill-rule="evenodd" stroke-width="12.397" fill='#ffcd11'></path></svg>