<svg  fill='#B19F6F' shape-rendering="geometricPrecision" text-rendering="geometricPrecision" version="1.1" viewBox="0 0 512 475.49" xmlns="http://www.w3.org/2000/svg"><path d="m508.92 335.77c-2.0066-4.3835-4.8642-8.3236-8.4075-11.591-3.5433-3.2676-7.7017-5.799-12.232-7.4448-4.53-1.6458-9.3436-2.3755-14.158-2.1438-4.8149 0.23169-9.5353 1.4181-13.888 3.49l-114.73 46.252v-1.4607c-1.4248-10.984-6.8109-21.071-15.149-28.362-8.3382-7.2916-19.052-11.288-30.128-11.236-18.663 0-41.059-4.8682-105.16-30.509-32.457-10.711-81.142-6.004-105.32-2.759v-1.9467c-0.021-1.6338-0.36631-3.2477-1.0158-4.747-0.64953-1.4993-1.5905-2.8535-2.7683-3.9854-1.1778-1.1318-2.5686-2.02-4.0919-2.6098-1.5233-0.58988-3.149-0.87217-4.7822-0.82956h-64.914c-3.215 0.0426-6.2864 1.3382-8.5599 3.6112s-3.5693 5.3449-3.6114 8.5606v171.05c0 3.2277 1.2823 6.3236 3.5649 8.6059 2.2826 2.2823 5.3784 3.5659 8.6064 3.5659h64.914c2.2226-0.0253 4.396-0.65913 6.2842-1.8322s3.419-2.8402 4.4265-4.8216c43.763 7.2969 88.057 10.935 132.42 10.872 65.888 0 131.94-8.2756 171.21-30.834 50.147-28.724 97.37-59.072 97.37-59.072 4.6085-1.9294 8.7883-4.755 12.298-8.3103 3.5113-3.5553 6.281-7.771 8.1531-12.403 1.8708-4.6325 2.8056-9.5899 2.7483-14.586-0.0559-4.996-1.1012-9.9321-3.0759-14.521zm-444.01 111.16h-40.571v-146.05h40.571zm411.55-82.439s-47.225 30.509-97.37 59.071c-60.856 34.891-203.67 32.457-290.16 16.229v-125.12c20.61-3.0839 68.484-8.6005 97.37 0.97337 67.51 26.94 91.366 32.457 113.6 32.457 5.1332-0.0839 10.119 1.7204 14.008 5.0719 3.8895 3.3515 6.4128 8.0146 7.0892 13.104 0.0732 1.4061 0.0732 2.8149 0 4.2197h-97.858c-3.2277 0-6.3236 1.2823-8.6059 3.5646s-3.5659 5.3782-3.5659 8.6072 1.2823 6.3236 3.5659 8.6059c2.2836 2.2823 5.3782 3.5646 8.6059 3.5646h110.52c1.5486-0.0186 3.0839-0.29295 4.5433-0.81092l131.29-52.904c9.4128-3.7324 15.093 0 17.202 5.0306 2.1092 5.0306 1.2983 12.495-10.224 18.338zm-203.18-187.11c1.9867-1.7523 3.5459-3.9348 4.5579-6.3822 1.012-2.4474 1.4527-5.0932 1.285-7.7364 0.12384-3.9587-1.2037-7.8256-3.7324-10.874-2.7071-3.1638-6.0173-5.7577-9.7377-7.6272-4.2983-2.3396-8.743-4.3995-13.306-6.1664-4.7071-1.7856-9.2503-3.7324-13.795-5.8429-4.4101-1.8575-8.6005-4.1984-12.495-6.9774-3.7537-3.0413-6.7989-6.8615-8.9254-11.198-2.4368-5.0526-3.6059-10.622-3.4088-16.228-0.032-8.0436 2.8509-15.827 8.1145-21.908 6.0706-6.7647 14.358-11.139 23.369-12.334v-16.228h22.071v16.228c7.241 1.2778 13.92 4.7308 19.149 9.8992 4.9374 4.6755 8.4767 10.631 10.224 17.202l-20.285 6.6537c-1.5193-3.9776-4.2424-7.3816-7.7896-9.737-4.0666-2.8778-8.9814-4.3065-13.956-4.0571-4.6059-0.29694-9.1771 0.96018-12.983 3.5702-1.5846 1.2056-2.8429 2.786-3.6644 4.5989s-1.1798 3.8016-1.0426 5.7872c-0.0653 3.2566 1.1598 6.4069 3.4088 8.7634 2.6432 2.6902 5.7843 4.8398 9.2503 6.3286 4.0386 2.0679 8.2131 3.8575 12.495 5.3555 4.7004 1.7577 9.3049 3.7616 13.794 6.0053 4.6804 2.2543 9.0892 5.0306 13.145 8.2756 3.9694 3.4447 7.2224 7.6352 9.5752 12.334 2.5899 5.6445 3.8668 11.803 3.7324 18.013 0.16245 6.8429-1.4594 13.61-4.7057 19.636-2.9174 5.4607-7.229 10.052-12.497 13.306-5.4154 3.482-11.494 5.8029-17.851 6.8162v16.229h-22.071v-16.878c-8.2636-1.775-15.891-5.7563-22.071-11.522-6.1798-5.7989-10.81-13.052-13.47-21.097l20.61-7.6272c2.5593 5.755 6.4527 10.819 11.361 14.767 4.6498 3.6045 10.345 5.5992 16.228 5.6804 5.5726 0.20239 11.037-1.5806 15.417-5.0306zm-17.688 90.392c26.479 0 52.365-7.8522 74.382-22.563 22.017-14.711 39.177-35.622 49.31-60.085 10.133-24.463 12.786-51.384 7.6192-77.355-5.1664-25.971-17.917-49.827-36.642-68.551-18.724-18.724-42.579-31.475-68.55-36.641-25.971-5.1659-52.891-2.5146-77.356 7.6188-24.465 10.133-45.373 27.294-60.085 49.311-14.711 22.017-22.563 47.902-22.563 74.382 0.043 35.495 14.162 69.525 39.261 94.623s59.128 39.218 94.623 39.261zm0-243.43c21.666 0 42.844 6.4245 60.858 18.461 18.015 12.037 32.055 29.145 40.346 49.161 8.2903 20.016 10.459 42.042 6.233 63.291-4.2264 21.249-14.659 40.767-29.979 56.087-15.32 15.32-34.839 25.752-56.088 29.979s-43.274 2.0573-63.29-6.233c-20.016-8.2903-37.124-22.332-49.16-40.345s-18.462-39.193-18.462-60.859c0.0439-29.039 11.598-56.876 32.132-77.41 20.534-20.534 48.372-32.088 77.41-32.131z" stroke-width="13.316" fill='#B19F6F'></path></svg>