<svg fill='#B19F6F' shape-rendering="geometricPrecision" text-rendering="geometricPrecision" version="1.1" viewBox="0 0 466.54 512" xmlns="http://www.w3.org/2000/svg"><path d="m35.658 72.953c9.8955-1.4823 22.043-1.3095 38.039-1.0622 0.28737 7e-3 0.67233 0.014 1.0214 0.014h5.7474v-51.745c0-11.118 9.0442-20.16 20.251-20.16 11.207 0 20.251 9.047 20.251 20.16v51.973h210.46v-51.973c0-11.118 9.0442-20.16 20.25-20.16 11.206 0 20.252 9.047 20.252 20.16v51.964l5.7968-0.0495c5.367-0.0457 10.487-0.11127 15.09-0.18323 16.004-0.24415 28.153-0.41783 38.053 1.0644 9.6511 1.445 16.654 4.4038 22.509 10.148 6.2681 6.1474 9.6143 13.647 11.358 25.519 1.7852 12.153 1.8012 28.166 1.8047 51.025v254.47c0 23.484-0.16437 47.552-12.08 66.01-11.501 17.814-35.139 31.872-86.167 31.872h-270.05c-51.029 0-74.667-14.058-86.166-31.872-11.916-18.458-12.08-42.526-12.08-66.01v-254.47c0-22.861 0.0146-38.873 1.799-51.026 1.743-11.871 5.0917-19.373 11.36-25.521 5.8485-5.7428 12.847-8.7022 22.499-10.148zm394.32 30.349c-1.9036-0.6367-4.3416-0.96822-6.7486-1.1774-2.5243-0.21955-5.4853-0.33887-8.6671-0.39795-6.252-0.11599-13.68-4e-3 -20.886 0.10494l-2e-3 1.2e-4 -0.38163 6e-3c-7.3981 0.11747-15.684 0.24737-24.996 0.24737h-270.05c-9.312 0-17.605-0.13001-25.004-0.24749l-0.38944-6e-3c-7.2023-0.10552-14.623-0.21437-20.869-0.0976-3.1808 0.0596-6.1397 0.17852-8.6634 0.39669-2.4068 0.20817-4.8396 0.53692-6.7396 1.1656l-2.4971 0.82613-1.0072 2.4298c-0.9751 2.3526-1.5097 5.5811-1.8699 8.8755-0.37876 3.4646-0.62268 7.6395-0.78326 12.242-0.32048 9.1832-0.32048 20.456-0.32048 31.891v18.258h406.34v-18.258c0-11.435 0-22.706-0.3207-31.889-0.16093-4.6014-0.40462-8.7763-0.78395-12.242-0.35979-3.2944-0.8943-6.5228-1.8691-8.8759l-1.0024-2.421zm6.4612 106.11h-406.34v205c-1.1e-4 11.071-1.1e-4 20.905 1.0176 29.204 1.0329 8.4234 3.1828 15.984 8.0165 22.113 4.9008 6.213 12.007 10.266 21.582 12.77 9.4793 2.4783 21.752 3.5393 37.526 3.5393h270.05c15.774 0 28.046-1.061 37.526-3.5393 9.5752-2.5036 16.681-6.5567 21.582-12.77 4.8336-6.1291 6.9843-13.689 8.0165-22.113 1.0184-8.2993 1.0184-18.133 1.0184-29.204z" clip-rule="evenodd" fill-rule="evenodd" stroke-width="11.495"></path><path d="m206.87 379.32 79.07-108.72c4.8773-6.7026 14.305-8.1981 21.039-3.3462 6.7268 4.8669 8.2154 14.227 3.3554 20.911l-87.923 120.88c-0.45175 0.62417-1.0437 1.2196-2.0082 2.1174l-0.0299 0.0264c-0.23909 0.2253-0.42646 0.4322-0.54715 0.56899l-0.0966 0.11265c-0.18277 0.13564-0.38853 0.25863-0.77015 0.48623-0.22875 0.13679-0.52187 0.31151-0.90925 0.54946-0.26553 0.15748-0.49198 0.30921-0.66325 0.42646-0.12759 0.0885-0.27588 0.19311-0.36554 0.25748l-0.0575 0.0414-0.0931 0.0644c-0.1115 0.0506-0.18621 0.0724-0.34369 0.1184-0.20921 0.0621-0.56555 0.16667-1.3472 0.43795-0.28737 0.10001-0.546 0.20116-0.74716 0.28048l-0.50003 0.20001c-0.18277 0.0724-0.26093 0.0988-0.27932 0.1046-1.1219 0.25863-2.2691 0.38853-3.4312 0.38853-2.9795 0-5.9704-0.87361-8.5958-2.691l-52.473-37.85c-6.7325-4.8623-8.2269-14.216-3.3657-20.906 4.8681-6.7015 14.285-8.2119 21.036-3.3496z" clip-rule="evenodd" fill-rule="evenodd" stroke-width="11.495" fill='#B19F6F'></path></svg>